<mxfile host="app.diagrams.net" modified="2024-04-15T10:32:17.553Z" agent="Mozilla/5.0 (Windows NT 10.0; Win64; x64) AppleWebKit/537.36 (KHTML, like Gecko) Chrome/123.0.0.0 Safari/537.36" etag="isayIUVErn8lpA5aFBrU" version="24.2.5" type="device">
  <diagram name="Page-1" id="f1b7ffb7-ca1e-a977-7cf5-a751b3c06c05">
    <mxGraphModel dx="4120" dy="2865" grid="1" gridSize="10" guides="1" tooltips="1" connect="1" arrows="1" fold="1" page="1" pageScale="1" pageWidth="826" pageHeight="1169" background="none" math="0" shadow="0">
      <root>
        <mxCell id="0" />
        <mxCell id="1" parent="0" />
        <mxCell id="bPXiUhjCPSmDo64csbBm-85" value="" style="rounded=0;whiteSpace=wrap;html=1;movable=1;resizable=1;rotatable=1;deletable=1;editable=1;locked=0;connectable=1;" vertex="1" parent="1">
          <mxGeometry x="-80" width="960" height="960" as="geometry" />
        </mxCell>
        <mxCell id="bPXiUhjCPSmDo64csbBm-63" value="" style="rounded=0;whiteSpace=wrap;html=1;fontSize=20;movable=1;resizable=1;rotatable=1;deletable=1;editable=1;locked=0;connectable=1;" vertex="1" parent="1">
          <mxGeometry x="240" y="520" width="320" height="320" as="geometry" />
        </mxCell>
        <mxCell id="bPXiUhjCPSmDo64csbBm-87" value="ATM" style="text;html=1;align=center;verticalAlign=middle;resizable=1;points=[];autosize=1;strokeColor=none;fillColor=none;fontSize=50;movable=1;rotatable=1;deletable=1;editable=1;locked=0;connectable=1;" vertex="1" parent="1">
          <mxGeometry x="335" y="-140" width="130" height="70" as="geometry" />
        </mxCell>
        <mxCell id="bPXiUhjCPSmDo64csbBm-88" value="" style="endArrow=classic;html=1;rounded=0;strokeWidth=4;" edge="1" parent="1">
          <mxGeometry width="50" height="50" relative="1" as="geometry">
            <mxPoint x="560" y="330" as="sourcePoint" />
            <mxPoint x="1230" y="330" as="targetPoint" />
          </mxGeometry>
        </mxCell>
        <mxCell id="bPXiUhjCPSmDo64csbBm-64" value="1" style="whiteSpace=wrap;html=1;aspect=fixed;fontSize=20;movable=0;resizable=0;rotatable=0;deletable=0;editable=0;locked=1;connectable=0;" vertex="1" parent="1">
          <mxGeometry x="260" y="550" width="50" height="50" as="geometry" />
        </mxCell>
        <mxCell id="bPXiUhjCPSmDo64csbBm-65" value="2" style="whiteSpace=wrap;html=1;aspect=fixed;fontSize=20;movable=0;resizable=0;rotatable=0;deletable=0;editable=0;locked=1;connectable=0;" vertex="1" parent="1">
          <mxGeometry x="330" y="550" width="50" height="50" as="geometry" />
        </mxCell>
        <mxCell id="bPXiUhjCPSmDo64csbBm-66" value="3" style="whiteSpace=wrap;html=1;aspect=fixed;fontSize=20;movable=0;resizable=0;rotatable=0;deletable=0;editable=0;locked=1;connectable=0;" vertex="1" parent="1">
          <mxGeometry x="400" y="550" width="50" height="50" as="geometry" />
        </mxCell>
        <mxCell id="bPXiUhjCPSmDo64csbBm-68" value="4" style="whiteSpace=wrap;html=1;aspect=fixed;fontSize=20;movable=0;resizable=0;rotatable=0;deletable=0;editable=0;locked=1;connectable=0;" vertex="1" parent="1">
          <mxGeometry x="260" y="620" width="50" height="50" as="geometry" />
        </mxCell>
        <mxCell id="bPXiUhjCPSmDo64csbBm-69" value="5" style="whiteSpace=wrap;html=1;aspect=fixed;fontSize=20;movable=0;resizable=0;rotatable=0;deletable=0;editable=0;locked=1;connectable=0;" vertex="1" parent="1">
          <mxGeometry x="330" y="620" width="50" height="50" as="geometry" />
        </mxCell>
        <mxCell id="bPXiUhjCPSmDo64csbBm-70" value="6" style="whiteSpace=wrap;html=1;aspect=fixed;fontSize=20;movable=0;resizable=0;rotatable=0;deletable=0;editable=0;locked=1;connectable=0;" vertex="1" parent="1">
          <mxGeometry x="400" y="620" width="50" height="50" as="geometry" />
        </mxCell>
        <mxCell id="bPXiUhjCPSmDo64csbBm-71" value="7" style="whiteSpace=wrap;html=1;aspect=fixed;fontSize=20;movable=0;resizable=0;rotatable=0;deletable=0;editable=0;locked=1;connectable=0;" vertex="1" parent="1">
          <mxGeometry x="260" y="690" width="50" height="50" as="geometry" />
        </mxCell>
        <mxCell id="bPXiUhjCPSmDo64csbBm-72" value="8" style="whiteSpace=wrap;html=1;aspect=fixed;fontSize=20;movable=0;resizable=0;rotatable=0;deletable=0;editable=0;locked=1;connectable=0;" vertex="1" parent="1">
          <mxGeometry x="330" y="690" width="50" height="50" as="geometry" />
        </mxCell>
        <mxCell id="bPXiUhjCPSmDo64csbBm-73" value="9" style="whiteSpace=wrap;html=1;aspect=fixed;fontSize=20;movable=0;resizable=0;rotatable=0;deletable=0;editable=0;locked=1;connectable=0;" vertex="1" parent="1">
          <mxGeometry x="400" y="690" width="50" height="50" as="geometry" />
        </mxCell>
        <mxCell id="bPXiUhjCPSmDo64csbBm-74" value="&lt;div style=&quot;&quot;&gt;&lt;span style=&quot;background-color: initial;&quot;&gt;*&lt;/span&gt;&lt;/div&gt;" style="whiteSpace=wrap;html=1;aspect=fixed;fontSize=40;align=center;movable=0;resizable=0;rotatable=0;deletable=0;editable=0;locked=1;connectable=0;" vertex="1" parent="1">
          <mxGeometry x="260" y="760" width="50" height="50" as="geometry" />
        </mxCell>
        <mxCell id="bPXiUhjCPSmDo64csbBm-75" value="0" style="whiteSpace=wrap;html=1;aspect=fixed;fontSize=20;movable=0;resizable=0;rotatable=0;deletable=0;editable=0;locked=1;connectable=0;" vertex="1" parent="1">
          <mxGeometry x="330" y="760" width="50" height="50" as="geometry" />
        </mxCell>
        <mxCell id="bPXiUhjCPSmDo64csbBm-76" value="#" style="whiteSpace=wrap;html=1;aspect=fixed;fontSize=20;movable=0;resizable=0;rotatable=0;deletable=0;editable=0;locked=1;connectable=0;" vertex="1" parent="1">
          <mxGeometry x="400" y="760" width="50" height="50" as="geometry" />
        </mxCell>
        <mxCell id="bPXiUhjCPSmDo64csbBm-78" value="Can" style="rounded=0;whiteSpace=wrap;html=1;fontSize=18;movable=0;resizable=0;rotatable=0;deletable=0;editable=0;locked=1;connectable=0;" vertex="1" parent="1">
          <mxGeometry x="470" y="550" width="70" height="50" as="geometry" />
        </mxCell>
        <mxCell id="bPXiUhjCPSmDo64csbBm-79" value="Clear" style="rounded=0;whiteSpace=wrap;html=1;fontSize=18;movable=0;resizable=0;rotatable=0;deletable=0;editable=0;locked=1;connectable=0;" vertex="1" parent="1">
          <mxGeometry x="470" y="620" width="70" height="50" as="geometry" />
        </mxCell>
        <mxCell id="bPXiUhjCPSmDo64csbBm-80" value="Enter" style="rounded=0;whiteSpace=wrap;html=1;fontSize=18;movable=0;resizable=0;rotatable=0;deletable=0;editable=0;locked=1;connectable=0;" vertex="1" parent="1">
          <mxGeometry x="470" y="690" width="70" height="50" as="geometry" />
        </mxCell>
        <mxCell id="bPXiUhjCPSmDo64csbBm-81" value="" style="rounded=0;whiteSpace=wrap;html=1;fontSize=18;movable=0;resizable=0;rotatable=0;deletable=0;editable=0;locked=1;connectable=0;" vertex="1" parent="1">
          <mxGeometry x="470" y="760" width="70" height="50" as="geometry" />
        </mxCell>
        <mxCell id="bPXiUhjCPSmDo64csbBm-82" value="Inster Card" style="rounded=0;whiteSpace=wrap;html=1;fontSize=20;movable=0;resizable=0;rotatable=0;deletable=0;editable=0;locked=1;connectable=0;" vertex="1" parent="1">
          <mxGeometry x="600" y="780" width="230" height="60" as="geometry" />
        </mxCell>
        <mxCell id="bPXiUhjCPSmDo64csbBm-83" value="Print Transaction Slip" style="rounded=0;whiteSpace=wrap;html=1;fontSize=20;movable=0;resizable=0;rotatable=0;deletable=0;editable=0;locked=1;connectable=0;" vertex="1" parent="1">
          <mxGeometry x="600" y="660" width="230" height="60" as="geometry" />
        </mxCell>
        <mxCell id="bPXiUhjCPSmDo64csbBm-84" value="Export Cash" style="rounded=0;whiteSpace=wrap;html=1;fontSize=20;movable=0;resizable=0;rotatable=0;deletable=0;editable=0;locked=1;connectable=0;" vertex="1" parent="1">
          <mxGeometry x="-30" y="780" width="230" height="60" as="geometry" />
        </mxCell>
        <mxCell id="bPXiUhjCPSmDo64csbBm-61" value="NAME OF BANK" style="rounded=0;whiteSpace=wrap;html=1;fontSize=20;movable=0;resizable=0;rotatable=0;deletable=0;editable=0;locked=1;connectable=0;" vertex="1" parent="1">
          <mxGeometry x="240" y="40" width="320" height="80" as="geometry" />
        </mxCell>
        <mxCell id="bPXiUhjCPSmDo64csbBm-62" value="Main Scrren" style="rounded=0;whiteSpace=wrap;html=1;fontSize=20;movable=0;resizable=0;rotatable=0;deletable=0;editable=0;locked=1;connectable=0;" vertex="1" parent="1">
          <mxGeometry x="240" y="160" width="320" height="320" as="geometry" />
        </mxCell>
        <mxCell id="bPXiUhjCPSmDo64csbBm-116" value="" style="group" vertex="1" connectable="0" parent="1">
          <mxGeometry x="2230" y="-130" width="730" height="1255" as="geometry" />
        </mxCell>
        <mxCell id="bPXiUhjCPSmDo64csbBm-102" value="" style="group" vertex="1" connectable="0" parent="bPXiUhjCPSmDo64csbBm-116">
          <mxGeometry width="730" height="1090" as="geometry" />
        </mxCell>
        <mxCell id="bPXiUhjCPSmDo64csbBm-89" value="" style="rounded=0;whiteSpace=wrap;html=1;movable=0;resizable=0;rotatable=0;deletable=0;editable=0;locked=1;connectable=0;" vertex="1" parent="bPXiUhjCPSmDo64csbBm-102">
          <mxGeometry y="130" width="730" height="960" as="geometry" />
        </mxCell>
        <mxCell id="bPXiUhjCPSmDo64csbBm-91" value="&lt;span style=&quot;border: 0px solid rgb(227, 227, 227); box-sizing: border-box; --tw-border-spacing-x: 0; --tw-border-spacing-y: 0; --tw-translate-x: 0; --tw-translate-y: 0; --tw-rotate: 0; --tw-skew-x: 0; --tw-skew-y: 0; --tw-scale-x: 1; --tw-scale-y: 1; --tw-pan-x: ; --tw-pan-y: ; --tw-pinch-zoom: ; --tw-scroll-snap-strictness: proximity; --tw-gradient-from-position: ; --tw-gradient-via-position: ; --tw-gradient-to-position: ; --tw-ordinal: ; --tw-slashed-zero: ; --tw-numeric-figure: ; --tw-numeric-spacing: ; --tw-numeric-fraction: ; --tw-ring-inset: ; --tw-ring-offset-width: 0px; --tw-ring-offset-color: #fff; --tw-ring-color: rgba(69,89,164,.5); --tw-ring-offset-shadow: 0 0 transparent; --tw-ring-shadow: 0 0 transparent; --tw-shadow: 0 0 transparent; --tw-shadow-colored: 0 0 transparent; --tw-blur: ; --tw-brightness: ; --tw-contrast: ; --tw-grayscale: ; --tw-hue-rotate: ; --tw-invert: ; --tw-saturate: ; --tw-sepia: ; --tw-drop-shadow: ; --tw-backdrop-blur: ; --tw-backdrop-brightness: ; --tw-backdrop-contrast: ; --tw-backdrop-grayscale: ; --tw-backdrop-hue-rotate: ; --tw-backdrop-invert: ; --tw-backdrop-opacity: ; --tw-backdrop-saturate: ; --tw-backdrop-sepia: ; --tw-contain-size: ; --tw-contain-layout: ; --tw-contain-paint: ; --tw-contain-style: ; font-weight: 600; color: rgb(13, 13, 13); font-family: Söhne, ui-sans-serif, system-ui, -apple-system, &amp;quot;Segoe UI&amp;quot;, Roboto, Ubuntu, Cantarell, &amp;quot;Noto Sans&amp;quot;, sans-serif, &amp;quot;Helvetica Neue&amp;quot;, Arial, &amp;quot;Apple Color Emoji&amp;quot;, &amp;quot;Segoe UI Emoji&amp;quot;, &amp;quot;Segoe UI Symbol&amp;quot;, &amp;quot;Noto Color Emoji&amp;quot;; font-size: 50px; text-align: left; white-space: pre-wrap; background-color: rgb(255, 255, 255);&quot;&gt;Login Screen&lt;/span&gt;" style="text;html=1;align=center;verticalAlign=middle;resizable=0;points=[];autosize=1;strokeColor=none;fillColor=none;fontSize=50;movable=0;rotatable=0;deletable=0;editable=0;locked=1;connectable=0;fontFamily=Helvetica;fontColor=default;" vertex="1" parent="bPXiUhjCPSmDo64csbBm-102">
          <mxGeometry x="216.25" width="297.5" height="80" as="geometry" />
        </mxCell>
        <mxCell id="bPXiUhjCPSmDo64csbBm-96" value="&lt;p&gt;&lt;b&gt;Display card number&lt;/b&gt;&lt;/p&gt;" style="text;html=1;align=center;verticalAlign=middle;resizable=0;points=[];autosize=1;strokeColor=none;fillColor=none;fontSize=30;" vertex="1" parent="bPXiUhjCPSmDo64csbBm-102">
          <mxGeometry x="218.67000000000007" y="310" width="320" height="110" as="geometry" />
        </mxCell>
        <mxCell id="bPXiUhjCPSmDo64csbBm-97" value="&lt;h3&gt;&lt;b style=&quot;font-size: 22px;&quot;&gt;Display the card number after inserting the card&lt;/b&gt;&lt;/h3&gt;" style="rounded=0;whiteSpace=wrap;html=1;" vertex="1" parent="bPXiUhjCPSmDo64csbBm-102">
          <mxGeometry x="119.99812500000007" y="430" width="517.34375" height="85" as="geometry" />
        </mxCell>
        <mxCell id="bPXiUhjCPSmDo64csbBm-92" value="&lt;b style=&quot;font-size: 30px;&quot;&gt;PIN：&lt;/b&gt;" style="text;html=1;align=center;verticalAlign=middle;resizable=0;points=[];autosize=1;strokeColor=none;fillColor=none;fontSize=30;" vertex="1" parent="bPXiUhjCPSmDo64csbBm-102">
          <mxGeometry x="180" y="625" width="100" height="50" as="geometry" />
        </mxCell>
        <mxCell id="bPXiUhjCPSmDo64csbBm-93" value="&lt;h3 style=&quot;font-size: 24px;&quot;&gt;&lt;b style=&quot;font-size: 24px;&quot;&gt;Show asterisks&lt;/b&gt;&lt;/h3&gt;" style="rounded=0;whiteSpace=wrap;html=1;fontSize=24;" vertex="1" parent="bPXiUhjCPSmDo64csbBm-102">
          <mxGeometry x="269" y="600" width="301" height="85" as="geometry" />
        </mxCell>
        <mxCell id="bPXiUhjCPSmDo64csbBm-115" value="&lt;font style=&quot;font-size: 40px;&quot;&gt;Use the mechanical button [Enter] on&amp;nbsp;&lt;/font&gt;&lt;div&gt;&lt;font style=&quot;font-size: 40px;&quot;&gt;the ATM machine to log in.&lt;/font&gt;&lt;/div&gt;" style="text;html=1;align=center;verticalAlign=middle;resizable=0;points=[];autosize=1;strokeColor=none;fillColor=none;" vertex="1" parent="bPXiUhjCPSmDo64csbBm-116">
          <mxGeometry x="20" y="1145" width="690" height="110" as="geometry" />
        </mxCell>
        <mxCell id="bPXiUhjCPSmDo64csbBm-117" value="" style="group;fontSize=31;" vertex="1" connectable="0" parent="1">
          <mxGeometry x="1230" y="-140" width="730" height="1090" as="geometry" />
        </mxCell>
        <mxCell id="bPXiUhjCPSmDo64csbBm-104" value="" style="rounded=0;whiteSpace=wrap;html=1;movable=0;resizable=0;rotatable=0;deletable=0;editable=0;locked=1;connectable=0;" vertex="1" parent="bPXiUhjCPSmDo64csbBm-117">
          <mxGeometry y="130" width="730" height="960" as="geometry" />
        </mxCell>
        <mxCell id="bPXiUhjCPSmDo64csbBm-105" value="&lt;span style=&quot;border: 0px solid rgb(227, 227, 227); box-sizing: border-box; --tw-border-spacing-x: 0; --tw-border-spacing-y: 0; --tw-translate-x: 0; --tw-translate-y: 0; --tw-rotate: 0; --tw-skew-x: 0; --tw-skew-y: 0; --tw-scale-x: 1; --tw-scale-y: 1; --tw-pan-x: ; --tw-pan-y: ; --tw-pinch-zoom: ; --tw-scroll-snap-strictness: proximity; --tw-gradient-from-position: ; --tw-gradient-via-position: ; --tw-gradient-to-position: ; --tw-ordinal: ; --tw-slashed-zero: ; --tw-numeric-figure: ; --tw-numeric-spacing: ; --tw-numeric-fraction: ; --tw-ring-inset: ; --tw-ring-offset-width: 0px; --tw-ring-offset-color: #fff; --tw-ring-color: rgba(69,89,164,.5); --tw-ring-offset-shadow: 0 0 transparent; --tw-ring-shadow: 0 0 transparent; --tw-shadow: 0 0 transparent; --tw-shadow-colored: 0 0 transparent; --tw-blur: ; --tw-brightness: ; --tw-contrast: ; --tw-grayscale: ; --tw-hue-rotate: ; --tw-invert: ; --tw-saturate: ; --tw-sepia: ; --tw-drop-shadow: ; --tw-backdrop-blur: ; --tw-backdrop-brightness: ; --tw-backdrop-contrast: ; --tw-backdrop-grayscale: ; --tw-backdrop-hue-rotate: ; --tw-backdrop-invert: ; --tw-backdrop-opacity: ; --tw-backdrop-saturate: ; --tw-backdrop-sepia: ; --tw-contain-size: ; --tw-contain-layout: ; --tw-contain-paint: ; --tw-contain-style: ; font-weight: 600; color: rgb(13, 13, 13); font-family: Söhne, ui-sans-serif, system-ui, -apple-system, &amp;quot;Segoe UI&amp;quot;, Roboto, Ubuntu, Cantarell, &amp;quot;Noto Sans&amp;quot;, sans-serif, &amp;quot;Helvetica Neue&amp;quot;, Arial, &amp;quot;Apple Color Emoji&amp;quot;, &amp;quot;Segoe UI Emoji&amp;quot;, &amp;quot;Segoe UI Symbol&amp;quot;, &amp;quot;Noto Color Emoji&amp;quot;; font-size: 50px; text-align: left; white-space: pre-wrap; background-color: rgb(255, 255, 255);&quot;&gt;Login Screen&lt;/span&gt;" style="text;html=1;align=center;verticalAlign=middle;resizable=0;points=[];autosize=1;strokeColor=none;fillColor=none;fontSize=50;movable=0;rotatable=0;deletable=0;editable=0;locked=1;connectable=0;fontFamily=Helvetica;fontColor=default;" vertex="1" parent="bPXiUhjCPSmDo64csbBm-117">
          <mxGeometry x="216.25" width="297.5" height="80" as="geometry" />
        </mxCell>
        <mxCell id="bPXiUhjCPSmDo64csbBm-106" value="&lt;h3&gt;&lt;b&gt;Please insert the card&lt;/b&gt;&lt;/h3&gt;" style="text;html=1;align=center;verticalAlign=middle;resizable=0;points=[];autosize=1;strokeColor=none;fillColor=none;fontSize=30;" vertex="1" parent="bPXiUhjCPSmDo64csbBm-117">
          <mxGeometry x="170" y="300" width="390" height="130" as="geometry" />
        </mxCell>
        <mxCell id="bPXiUhjCPSmDo64csbBm-110" value="NAME OF BANK" style="rounded=0;whiteSpace=wrap;html=1;fontSize=20;movable=1;resizable=1;rotatable=1;deletable=1;editable=1;locked=0;connectable=1;" vertex="1" parent="bPXiUhjCPSmDo64csbBm-117">
          <mxGeometry x="205" y="180" width="320" height="80" as="geometry" />
        </mxCell>
        <mxCell id="bPXiUhjCPSmDo64csbBm-112" value="" style="rounded=0;whiteSpace=wrap;html=1;fillColor=#999999;" vertex="1" parent="bPXiUhjCPSmDo64csbBm-117">
          <mxGeometry x="237.75" y="507.5" width="280" height="30" as="geometry" />
        </mxCell>
        <mxCell id="bPXiUhjCPSmDo64csbBm-111" value="" style="rounded=0;whiteSpace=wrap;html=1;fillColor=#000000;" vertex="1" parent="bPXiUhjCPSmDo64csbBm-117">
          <mxGeometry x="243.75" y="515" width="270" height="15" as="geometry" />
        </mxCell>
        <mxCell id="bPXiUhjCPSmDo64csbBm-114" value="&lt;h3 style=&quot;font-size: 25px;&quot;&gt;&lt;b style=&quot;font-size: 25px;&quot;&gt;The pattern shows that the card is inserted face up&lt;/b&gt;&lt;/h3&gt;" style="shape=trapezoid;perimeter=trapezoidPerimeter;whiteSpace=wrap;html=1;fixedSize=1;fontSize=25;" vertex="1" parent="bPXiUhjCPSmDo64csbBm-117">
          <mxGeometry x="237" y="520" width="284" height="220" as="geometry" />
        </mxCell>
        <mxCell id="bPXiUhjCPSmDo64csbBm-155" value="&lt;span style=&quot;font-size: 30px;&quot;&gt;English&amp;nbsp;&lt;/span&gt;" style="rounded=0;whiteSpace=wrap;html=1;fontSize=30;" vertex="1" parent="bPXiUhjCPSmDo64csbBm-117">
          <mxGeometry x="85" y="930" width="205" height="60" as="geometry" />
        </mxCell>
        <mxCell id="bPXiUhjCPSmDo64csbBm-165" value="&lt;span style=&quot;font-size: 30px;&quot;&gt;Français&lt;/span&gt;" style="rounded=0;whiteSpace=wrap;html=1;fontSize=30;" vertex="1" parent="bPXiUhjCPSmDo64csbBm-117">
          <mxGeometry x="440" y="930" width="205" height="60" as="geometry" />
        </mxCell>
        <mxCell id="bPXiUhjCPSmDo64csbBm-118" value="STEP 1" style="text;html=1;align=center;verticalAlign=middle;resizable=0;points=[];autosize=1;strokeColor=none;fillColor=none;fontSize=40;" vertex="1" parent="1">
          <mxGeometry x="320" y="-270" width="160" height="60" as="geometry" />
        </mxCell>
        <mxCell id="bPXiUhjCPSmDo64csbBm-119" value="STEP 2" style="text;html=1;align=center;verticalAlign=middle;resizable=0;points=[];autosize=1;strokeColor=none;fillColor=none;fontSize=40;" vertex="1" parent="1">
          <mxGeometry x="1500" y="-270" width="160" height="60" as="geometry" />
        </mxCell>
        <mxCell id="bPXiUhjCPSmDo64csbBm-120" value="STEP 3" style="text;html=1;align=center;verticalAlign=middle;resizable=0;points=[];autosize=1;strokeColor=none;fillColor=none;fontSize=40;" vertex="1" parent="1">
          <mxGeometry x="2515" y="-270" width="160" height="60" as="geometry" />
        </mxCell>
        <mxCell id="bPXiUhjCPSmDo64csbBm-121" value="STEP 4" style="text;html=1;align=center;verticalAlign=middle;resizable=0;points=[];autosize=1;strokeColor=none;fillColor=none;fontSize=40;" vertex="1" parent="1">
          <mxGeometry x="310" y="1280" width="160" height="60" as="geometry" />
        </mxCell>
        <mxCell id="bPXiUhjCPSmDo64csbBm-122" value="&lt;span style=&quot;border: 0px solid rgb(227, 227, 227); box-sizing: border-box; --tw-border-spacing-x: 0; --tw-border-spacing-y: 0; --tw-translate-x: 0; --tw-translate-y: 0; --tw-rotate: 0; --tw-skew-x: 0; --tw-skew-y: 0; --tw-scale-x: 1; --tw-scale-y: 1; --tw-pan-x: ; --tw-pan-y: ; --tw-pinch-zoom: ; --tw-scroll-snap-strictness: proximity; --tw-gradient-from-position: ; --tw-gradient-via-position: ; --tw-gradient-to-position: ; --tw-ordinal: ; --tw-slashed-zero: ; --tw-numeric-figure: ; --tw-numeric-spacing: ; --tw-numeric-fraction: ; --tw-ring-inset: ; --tw-ring-offset-width: 0px; --tw-ring-offset-color: #fff; --tw-ring-color: rgba(69,89,164,.5); --tw-ring-offset-shadow: 0 0 transparent; --tw-ring-shadow: 0 0 transparent; --tw-shadow: 0 0 transparent; --tw-shadow-colored: 0 0 transparent; --tw-blur: ; --tw-brightness: ; --tw-contrast: ; --tw-grayscale: ; --tw-hue-rotate: ; --tw-invert: ; --tw-saturate: ; --tw-sepia: ; --tw-drop-shadow: ; --tw-backdrop-blur: ; --tw-backdrop-brightness: ; --tw-backdrop-contrast: ; --tw-backdrop-grayscale: ; --tw-backdrop-hue-rotate: ; --tw-backdrop-invert: ; --tw-backdrop-opacity: ; --tw-backdrop-saturate: ; --tw-backdrop-sepia: ; --tw-contain-size: ; --tw-contain-layout: ; --tw-contain-paint: ; --tw-contain-style: ; font-weight: 600; color: rgb(13, 13, 13); font-family: Söhne, ui-sans-serif, system-ui, -apple-system, &amp;quot;Segoe UI&amp;quot;, Roboto, Ubuntu, Cantarell, &amp;quot;Noto Sans&amp;quot;, sans-serif, &amp;quot;Helvetica Neue&amp;quot;, Arial, &amp;quot;Apple Color Emoji&amp;quot;, &amp;quot;Segoe UI Emoji&amp;quot;, &amp;quot;Segoe UI Symbol&amp;quot;, &amp;quot;Noto Color Emoji&amp;quot;; font-size: 50px; text-align: left; white-space: pre-wrap; background-color: rgb(255, 255, 255);&quot;&gt;Main Transaction Screen&lt;/span&gt;" style="text;html=1;align=center;verticalAlign=middle;resizable=1;points=[];autosize=1;strokeColor=none;fillColor=none;fontSize=50;movable=1;rotatable=1;deletable=1;editable=1;locked=0;connectable=1;" vertex="1" parent="1">
          <mxGeometry x="70" y="1450" width="640" height="80" as="geometry" />
        </mxCell>
        <mxCell id="bPXiUhjCPSmDo64csbBm-131" value="&lt;font style=&quot;font-size: 40px;&quot;&gt;Use the mechanical button [Enter] on&amp;nbsp;&lt;/font&gt;&lt;div&gt;&lt;font style=&quot;font-size: 40px;&quot;&gt;the ATM machine.&lt;/font&gt;&lt;/div&gt;" style="text;html=1;align=center;verticalAlign=middle;resizable=0;points=[];autosize=1;strokeColor=none;fillColor=none;" vertex="1" parent="1">
          <mxGeometry x="50" y="2654" width="690" height="110" as="geometry" />
        </mxCell>
        <mxCell id="bPXiUhjCPSmDo64csbBm-125" value="" style="rounded=0;whiteSpace=wrap;html=1;movable=1;resizable=1;rotatable=1;deletable=1;editable=1;locked=0;connectable=1;" vertex="1" parent="1">
          <mxGeometry x="30" y="1639" width="730" height="960" as="geometry" />
        </mxCell>
        <mxCell id="bPXiUhjCPSmDo64csbBm-127" value="&lt;p&gt;&lt;b&gt;Select an account:&lt;/b&gt;&lt;/p&gt;" style="text;html=1;align=left;verticalAlign=middle;resizable=0;points=[];autosize=1;strokeColor=none;fillColor=none;fontSize=30;" vertex="1" parent="1">
          <mxGeometry x="60" y="1819" width="290" height="110" as="geometry" />
        </mxCell>
        <mxCell id="bPXiUhjCPSmDo64csbBm-133" value="Chequing" style="rounded=1;whiteSpace=wrap;html=1;fontSize=28;align=right;" vertex="1" parent="1">
          <mxGeometry x="450" y="1985" width="290" height="60" as="geometry" />
        </mxCell>
        <mxCell id="bPXiUhjCPSmDo64csbBm-134" value="Saving" style="rounded=1;whiteSpace=wrap;html=1;fontSize=28;align=right;" vertex="1" parent="1">
          <mxGeometry x="450" y="2084" width="290" height="60" as="geometry" />
        </mxCell>
        <mxCell id="bPXiUhjCPSmDo64csbBm-135" value="Cancel / Return Card" style="rounded=1;whiteSpace=wrap;html=1;fontSize=28;align=right;" vertex="1" parent="1">
          <mxGeometry x="450" y="2190" width="290" height="60" as="geometry" />
        </mxCell>
        <mxCell id="bPXiUhjCPSmDo64csbBm-136" value="STEP 5" style="text;html=1;align=center;verticalAlign=middle;resizable=0;points=[];autosize=1;strokeColor=none;fillColor=none;fontSize=40;" vertex="1" parent="1">
          <mxGeometry x="1519" y="1273" width="160" height="60" as="geometry" />
        </mxCell>
        <mxCell id="bPXiUhjCPSmDo64csbBm-137" value="&lt;span style=&quot;border: 0px solid rgb(227, 227, 227); box-sizing: border-box; --tw-border-spacing-x: 0; --tw-border-spacing-y: 0; --tw-translate-x: 0; --tw-translate-y: 0; --tw-rotate: 0; --tw-skew-x: 0; --tw-skew-y: 0; --tw-scale-x: 1; --tw-scale-y: 1; --tw-pan-x: ; --tw-pan-y: ; --tw-pinch-zoom: ; --tw-scroll-snap-strictness: proximity; --tw-gradient-from-position: ; --tw-gradient-via-position: ; --tw-gradient-to-position: ; --tw-ordinal: ; --tw-slashed-zero: ; --tw-numeric-figure: ; --tw-numeric-spacing: ; --tw-numeric-fraction: ; --tw-ring-inset: ; --tw-ring-offset-width: 0px; --tw-ring-offset-color: #fff; --tw-ring-color: rgba(69,89,164,.5); --tw-ring-offset-shadow: 0 0 transparent; --tw-ring-shadow: 0 0 transparent; --tw-shadow: 0 0 transparent; --tw-shadow-colored: 0 0 transparent; --tw-blur: ; --tw-brightness: ; --tw-contrast: ; --tw-grayscale: ; --tw-hue-rotate: ; --tw-invert: ; --tw-saturate: ; --tw-sepia: ; --tw-drop-shadow: ; --tw-backdrop-blur: ; --tw-backdrop-brightness: ; --tw-backdrop-contrast: ; --tw-backdrop-grayscale: ; --tw-backdrop-hue-rotate: ; --tw-backdrop-invert: ; --tw-backdrop-opacity: ; --tw-backdrop-saturate: ; --tw-backdrop-sepia: ; --tw-contain-size: ; --tw-contain-layout: ; --tw-contain-paint: ; --tw-contain-style: ; font-weight: 600; color: rgb(13, 13, 13); font-family: Söhne, ui-sans-serif, system-ui, -apple-system, &amp;quot;Segoe UI&amp;quot;, Roboto, Ubuntu, Cantarell, &amp;quot;Noto Sans&amp;quot;, sans-serif, &amp;quot;Helvetica Neue&amp;quot;, Arial, &amp;quot;Apple Color Emoji&amp;quot;, &amp;quot;Segoe UI Emoji&amp;quot;, &amp;quot;Segoe UI Symbol&amp;quot;, &amp;quot;Noto Color Emoji&amp;quot;; font-size: 50px; text-align: left; white-space: pre-wrap; background-color: rgb(255, 255, 255);&quot;&gt;Administrator Screen&lt;/span&gt;" style="text;html=1;align=center;verticalAlign=middle;resizable=1;points=[];autosize=1;strokeColor=none;fillColor=none;fontSize=50;movable=1;rotatable=1;deletable=1;editable=1;locked=0;connectable=1;" vertex="1" parent="1">
          <mxGeometry x="1319" y="1443" width="560" height="80" as="geometry" />
        </mxCell>
        <mxCell id="bPXiUhjCPSmDo64csbBm-138" value="&lt;font style=&quot;font-size: 40px;&quot;&gt;Use the mechanical button [Enter] on&amp;nbsp;&lt;/font&gt;&lt;div&gt;&lt;font style=&quot;font-size: 40px;&quot;&gt;the ATM machine.&lt;/font&gt;&lt;/div&gt;" style="text;html=1;align=center;verticalAlign=middle;resizable=0;points=[];autosize=1;strokeColor=none;fillColor=none;" vertex="1" parent="1">
          <mxGeometry x="1259" y="2647" width="690" height="110" as="geometry" />
        </mxCell>
        <mxCell id="bPXiUhjCPSmDo64csbBm-139" value="" style="rounded=0;whiteSpace=wrap;html=1;movable=1;resizable=1;rotatable=1;deletable=1;editable=1;locked=0;connectable=1;" vertex="1" parent="1">
          <mxGeometry x="1239" y="1632" width="730" height="960" as="geometry" />
        </mxCell>
        <mxCell id="bPXiUhjCPSmDo64csbBm-140" value="&lt;p&gt;&lt;b&gt;Select an option:&lt;/b&gt;&lt;/p&gt;" style="text;html=1;align=left;verticalAlign=middle;resizable=0;points=[];autosize=1;strokeColor=none;fillColor=none;fontSize=30;" vertex="1" parent="1">
          <mxGeometry x="1269" y="1812" width="270" height="110" as="geometry" />
        </mxCell>
        <mxCell id="bPXiUhjCPSmDo64csbBm-141" value="suspending services" style="rounded=1;whiteSpace=wrap;html=1;fontSize=28;align=right;" vertex="1" parent="1">
          <mxGeometry x="1659" y="1978" width="290" height="60" as="geometry" />
        </mxCell>
        <mxCell id="bPXiUhjCPSmDo64csbBm-142" value="printing account reports" style="rounded=1;whiteSpace=wrap;html=1;fontSize=28;align=right;" vertex="1" parent="1">
          <mxGeometry x="1659" y="2077" width="290" height="60" as="geometry" />
        </mxCell>
        <mxCell id="bPXiUhjCPSmDo64csbBm-144" value="Paying interest" style="rounded=1;whiteSpace=wrap;html=1;fontSize=28;align=left;" vertex="1" parent="1">
          <mxGeometry x="1279" y="1974.5" width="290" height="60" as="geometry" />
        </mxCell>
        <mxCell id="bPXiUhjCPSmDo64csbBm-145" value="replenishing ATM cash" style="rounded=1;whiteSpace=wrap;html=1;fontSize=28;align=left;" vertex="1" parent="1">
          <mxGeometry x="1279" y="2073.5" width="290" height="60" as="geometry" />
        </mxCell>
        <mxCell id="bPXiUhjCPSmDo64csbBm-166" value="Cancel" style="rounded=1;whiteSpace=wrap;html=1;fontSize=28;align=right;" vertex="1" parent="1">
          <mxGeometry x="1658" y="2190" width="290" height="60" as="geometry" />
        </mxCell>
      </root>
    </mxGraphModel>
  </diagram>
</mxfile>
